<svg id="svg" version="1.1" xmlns="http://www.w3.org/2000/svg" style="display: block;" viewBox="1400 1800 1200 1200"><path d="M0 0 C1.13742708 -0.00132557 1.13742708 -0.00132557 2.29783249 -0.00267792 C24.32014529 -0.02529281 46.25871879 0.38601178 68.25 1.625 C69.37225983 1.68812378 70.49451965 1.75124756 71.65078735 1.81628418 C78.83454148 2.23163082 86.01204337 2.71021335 93.1875 3.25 C94.15302795 3.32256012 95.11855591 3.39512024 96.11334229 3.46987915 C107.65519446 4.36392525 119.02225201 5.63249192 130.39697266 7.79956055 C132.48002769 8.19558525 134.56575131 8.57427176 136.65234375 8.95117188 C155.12164712 12.34432341 174.13021203 18.16944457 188.1875 31.25 C198.34123873 46.79271071 202.31435966 66.38150432 206.1875 84.25 C206.40293457 85.23419922 206.61836914 86.21839844 206.84033203 87.23242188 C212.49189481 113.33191268 214.98382766 139.68064787 217.1875 166.25 C217.28417969 167.41450684 217.38085938 168.57901367 217.48046875 169.77880859 C218.14092237 177.93038565 218.68337054 186.08742857 219.1875 194.25 C219.23011837 194.93859667 219.27273674 195.62719334 219.31664658 196.33665657 C221.12522741 225.9252655 221.5046724 255.45843347 221.44824219 285.09716797 C221.436734 291.20760549 221.44351946 297.31786934 221.45538712 303.42830086 C221.46268349 308.24166122 221.46028443 313.05498166 221.45513153 317.86834335 C221.45382244 320.12045184 221.45534316 322.37256426 221.46009064 324.62466812 C221.49501897 345.78468199 220.27541075 366.68015623 216.375 387.5 C216.24333435 388.21914581 216.1116687 388.93829163 215.97601318 389.67922974 C206.15829204 443.27690601 206.15829204 443.27690601 190.85546875 453.86328125 C160.39082866 470.7299704 120.12895493 473.59733097 86.1875 478.25 C84.87360794 478.4327095 84.87360794 478.4327095 83.53317261 478.61911011 C31.77765371 485.78634296 -20.21870463 488.39081065 -72.41446686 488.49453354 C-74.83237196 488.4999053 -77.25025593 488.50802234 -79.66815186 488.51651001 C-98.18747097 488.57195851 -116.5157769 488.16649109 -134.97677612 486.503479 C-138.35136318 486.20183223 -141.72808306 485.93696483 -145.10594177 485.6750946 C-221.07941952 479.73891432 -221.07941952 479.73891432 -248.8125 462.25 C-249.51503906 461.81300781 -250.21757813 461.37601563 -250.94140625 460.92578125 C-276.82945789 443.24490058 -281.4327286 407.2428049 -286.84178162 378.92433167 C-290.07025097 361.77954697 -292.65071356 344.56239694 -294.8125 327.25 C-294.9767749 325.98679932 -295.1410498 324.72359863 -295.31030273 323.42211914 C-296.81808125 311.54139866 -297.62203602 299.63645143 -298.375 287.6875 C-298.50154975 285.73239572 -298.62850134 283.77731742 -298.75585938 281.82226562 C-299.0036441 278.01312024 -299.24473628 274.20363209 -299.48168945 270.39379883 C-299.67041412 267.38532175 -299.88088186 264.38300989 -300.11791992 261.37768555 C-301.10368391 248.40566691 -300.99972605 235.40366869 -300.99780273 222.40209961 C-300.9977223 219.6191547 -301.00454396 216.83637732 -301.01831055 214.0534668 C-301.11034199 195.13530699 -300.48804829 176.40596456 -299.06051636 157.53842163 C-298.84411944 154.66923872 -298.64103843 151.79975224 -298.44750977 148.92895508 C-297.05692734 128.45744248 -294.70510288 108.41062487 -290.8125 88.25 C-290.65168945 87.37843262 -290.49087891 86.50686523 -290.32519531 85.60888672 C-286.21106563 63.63507487 -275.31141919 40.86308702 -257.0859375 27.20703125 C-253.36691854 24.98360822 -249.90196868 23.8198551 -245.75 22.6875 C-245.07517578 22.49220703 -244.40035156 22.29691406 -243.70507812 22.09570312 C-232.397403 18.89029568 -221.11216105 16.71190959 -209.44140625 15.34765625 C-208.08307349 15.18390592 -206.72480883 15.01958984 -205.36660767 14.85475159 C-201.77589809 14.42095502 -198.18417216 13.99625287 -194.59209824 13.5739212 C-191.61303728 13.22265589 -188.63459475 12.86628597 -185.65611362 12.51014328 C-164.89455696 10.02946411 -144.12318564 7.65667831 -123.31494141 5.59960938 C-120.25378423 5.29404845 -117.19515173 4.97210819 -114.13671875 4.640625 C-103.2170191 3.48348008 -92.2735282 2.80816615 -81.3125 2.1875 C-80.60905457 2.14711609 -79.90560913 2.10673218 -79.18084717 2.06512451 C-52.79989659 0.57096172 -26.4180828 0.01422321 0 0 Z " transform="translate(2039.8125,2150.75)" style="fill: #FEFEFE;"/></svg>