<svg id="svg" version="1.1" xmlns="http://www.w3.org/2000/svg" style="display: block;" viewBox="0 0 512 512"><path d="M0 0 C168.96 0 337.92 0 512 0 C512 168.96 512 337.92 512 512 C343.04 512 174.08 512 0 512 C0 343.04 0 174.08 0 0 Z " transform="translate(0,0)" style="fill: #35373A;"/><path d="M0 0 C168.96 0 337.92 0 512 0 C512 168.96 512 337.92 512 512 C343.04 512 174.08 512 0 512 C0 343.04 0 174.08 0 0 Z M208 30 C207.01 31.485 207.01 31.485 206 33 C205.34 33.66 204.68 34.32 204 35 C201.86884344 34.80760392 199.73783497 34.60077149 197.6171875 34.31494141 C176.68852117 31.79647316 156.08262615 34.25466286 139 47.2890625 C128.31289233 56.43699433 120.3966 68.97734045 118 83 C116.98421875 83.09796875 115.9684375 83.1959375 114.921875 83.296875 C97.04479922 85.1744259 79.99564082 90.62142464 67.76953125 104.5390625 C57.8797941 117.41613114 53.9665367 131.41043498 55.44921875 147.5234375 C56.53686059 154.38869453 58.7794308 160.84770189 62 167 C61.26136719 166.95359375 60.52273437 166.9071875 59.76171875 166.859375 C49.73532701 166.50265458 41.93218637 168.2451587 34.0625 174.6875 C28.26891077 180.26344098 25.28313719 186.93059009 25 195 C25.8007673 203.69404494 28.88803953 210.26561223 35.1875 216.3125 C43.56430613 222.8955575 53.83392485 222.60415532 64 222 C65.6721022 221.69510148 67.34027234 221.36632359 69 221 C74.66399506 220.22562568 78.8607674 221.17618049 84.125 223.375 C100.56906485 230.08219679 119.7346139 229.47909683 136.3515625 223.54296875 C140.90096399 221.61897133 144.85793018 219.23220635 148.86328125 216.35546875 C151 215 151 215 154 215 C156.44947849 216.20715926 158.84676034 217.45719726 161.25 218.75 C171.89461943 224.2665103 182.9548481 227.49460901 195 228 C195.67546875 228.0515625 196.3509375 228.103125 197.046875 228.15625 C203.57338987 228.45067924 209.86767624 227.0373947 216.23046875 225.75390625 C217.47441406 225.50511719 218.71835938 225.25632813 220 225 C221.08796875 224.74476563 222.1759375 224.48953125 223.296875 224.2265625 C226 224 226 224 227.72265625 225.08203125 C235.20160295 234.74142888 239.23191836 244.58519943 239.4140625 256.77734375 C239.44311172 257.99436729 239.44311172 257.99436729 239.4727478 259.23597717 C239.53206966 261.80304772 239.57873736 264.37016429 239.625 266.9375 C239.66322352 268.68816956 239.70227774 270.43882119 239.7421875 272.18945312 C239.83773156 276.45948816 239.92193537 280.7296111 240 285 C238.01355998 284.98207092 236.02711995 284.96414185 234.04067993 284.94621277 C228.37230533 285.09561698 222.69499283 287.08731155 217.75 289.75 C213.70601604 291.58817453 210.42148922 290.73626362 206.265625 289.47265625 C196.73679515 287.48474519 186.52791461 288.24104154 178 293 C177.01 293.66 176.02 294.32 175 295 C171.83152575 294.70662275 168.8146971 294.18661438 165.71484375 293.4765625 C155.21873571 291.63408023 143.18376494 292.15133049 134.11328125 298.2734375 C133.53964844 298.69882812 132.96601563 299.12421875 132.375 299.5625 C117.9342692 309.34007814 92.57389101 306.14208435 75.90820312 305.90405273 C73.6523359 305.87403438 71.39662663 305.85617303 69.140625 305.83984375 C68.45115784 305.82638412 67.76169067 305.8129245 67.05133057 305.79905701 C65.3662458 305.79009606 63.68127632 305.88641799 62 306 C59.69013223 307.93403873 59.69013223 307.93403873 59.375 311.3125 C59.59042165 314.91835089 59.59042165 314.91835089 61.51220703 316.34399414 C66.36213911 319.23888264 71.12049765 321.41182809 76.5 323.125 C77.28117187 323.37797852 78.06234375 323.63095703 78.8671875 323.89160156 C87.87916417 326.71695832 97.02235946 328.59491296 106.4375 329.41015625 C115.87098294 330.23204339 123.67726513 332.03706022 132.453125 335.6015625 C143.10352 339.80072705 153.79308857 339.72414022 165 338 C171.27051501 337.6280203 175.47950249 338.69023682 181.25 341 C193.74240236 345.58678627 206.24683298 345.36099089 219 342 C221.8359375 341.69921875 221.8359375 341.69921875 224.375 341.6875 C225.20773438 341.67074219 226.04046875 341.65398437 226.8984375 341.63671875 C231.37661288 342.16124055 235.68136342 343.70440903 240 345 C240 357.54 240 370.08 240 383 C237.69 382.67 235.38 382.34 233 382 C219.15410115 382.61828777 209.3167535 389.1637928 199.69140625 398.4375 C194.37476479 403.49949825 189.13651811 407.47963379 181.609375 408.2421875 C178.31692971 407.93660126 176.96159377 406.84111619 174.375 404.8125 C162.18995081 395.91633577 148.43183598 391.89794943 133.34375 393.41015625 C128.2809189 394.30324912 123.71497261 395.99717978 119 398 C118.01 398.33 117.02 398.66 116 399 C115.47792969 398.41992188 114.95585938 397.83984375 114.41796875 397.2421875 C104.95476029 387.19892248 93.70551152 381.53247281 80 380 C59.85642803 379.89239545 40.70611174 385.69748653 26 400 C12.80830817 415.07959048 8.80656818 432.17612587 8.625 451.6875 C8.61098145 452.72036133 8.59696289 453.75322266 8.58251953 454.81738281 C8.67369393 469.51282562 12.6088191 481.04689551 22.640625 491.734375 C31.64311707 500.37915215 42.93850512 503.12173781 55.17594528 503.12863445 C56.23031599 503.13126401 56.23031599 503.13126401 57.30598712 503.13394669 C59.6611035 503.1385982 62.01615792 503.13614337 64.37127686 503.13371277 C66.07699612 503.13558117 67.78271496 503.13788199 69.48843312 503.14057809 C74.17582733 503.14669894 78.86320371 503.14656216 83.55060101 503.14538372 C88.60595157 503.14517978 93.66129639 503.1506978 98.71664429 503.15544128 C108.62129557 503.16375006 118.5259409 503.16649623 128.43059537 503.16705366 C136.48147413 503.16752873 144.53235093 503.16958304 152.58322906 503.17275429 C175.4068613 503.18156163 198.23048883 503.18617356 221.05412278 503.18542381 C222.28471929 503.18538386 223.51531581 503.1853439 224.78320312 503.18530273 C226.01530153 503.18526185 227.24739993 503.18522097 228.51683465 503.18517885 C248.48480587 503.1847724 268.45275824 503.1943415 288.420724 503.2084411 C308.92164856 503.22280285 329.42256391 503.22971139 349.92349362 503.22884732 C361.43399683 503.22851528 372.94448027 503.23126579 384.45497894 503.24202538 C394.25544773 503.25112773 404.05588779 503.25330781 413.85635898 503.24651595 C418.8560175 503.24324937 423.8556209 503.24319909 428.8552742 503.2518692 C433.43477174 503.25972897 438.0141704 503.25830807 442.59366551 503.24958507 C444.24775856 503.24804893 445.90185897 503.24987053 447.55594334 503.25544515 C463.45231111 503.30545837 478.09966852 501.57748376 490.4375 490.4375 C502.94669372 476.58323168 503.7754318 459.68705829 503 442 C501.50944801 421.34220906 494.23506071 403.1026491 478.80859375 388.99609375 C471.17251912 382.67140224 463.31311912 379.27832255 453.5625 377.625 C446.92092873 376.45732538 442.2878269 374.15761312 436.62890625 370.5859375 C428.86601645 365.90282716 419.44313374 365.91527048 410.7265625 367.65234375 C398.44612323 371.05061257 388.09192043 377.36410296 381.53515625 388.484375 C377.23359131 396.71345575 375.66530002 403.75856176 376 413 C374.845 412.525625 373.69 412.05125 372.5 411.5625 C367.18803752 409.72668577 361.9813399 409.57452178 356.41015625 409.55493164 C354.37890625 409.50390625 354.37890625 409.50390625 351 409 C349.8046875 407.265625 349.8046875 407.265625 349 405 C338.50373466 392.73723991 323.36588036 382.83978856 307 381 C304.36 381 301.72 381 299 381 C299.33 369.45 299.66 357.9 300 346 C303.82944583 344.08527709 304.79551878 343.77157949 308.78125 343.9453125 C309.70010986 343.97262451 310.61896973 343.99993652 311.56567383 344.02807617 C313.01816528 344.07605347 313.01816528 344.07605347 314.5 344.125 C323.17208025 344.27518726 329.97143467 343.43425041 338 340 C344.70437729 337.31099182 350.87143309 336.45303873 358.05859375 336.15625 C359.10926529 336.10215469 360.15993683 336.04805939 361.2424469 335.99232483 C363.48355918 335.87762828 365.72494562 335.76818549 367.96655273 335.66360474 C373.81134463 335.38810771 379.65351159 335.06454251 385.49609375 334.74609375 C386.65329926 334.68389145 387.81050476 334.62168915 389.0027771 334.55760193 C398.28857304 334.05370336 407.56673135 333.49153099 416.83572388 332.73583984 C418.2685214 332.62108512 419.70187655 332.51307589 421.13571167 332.41210938 C423.09182822 332.27310043 425.04603848 332.10798909 427 331.94140625 C428.0725 331.85576416 429.145 331.77012207 430.25 331.68188477 C433.59042178 330.85360014 434.88867885 329.67867646 437 327 C437.66685938 324.45672892 437.66685938 324.45672892 437 322 C433.44552204 318.34153465 428.78849158 317.81044936 424 316.75 C403.42818566 311.8477645 384.56387696 303.79415684 365.92578125 293.84375 C353.88372492 287.47885573 341.6162398 284.07343262 328 287 C325.69754929 288.03662374 323.42477624 289.1418322 321.1875 290.3125 C315.70077654 293.12586245 315.70077654 293.12586245 312.43359375 292.5390625 C310.125 291.4375 310.125 291.4375 308.1953125 290.18359375 C305.22186509 288.58047175 302.32671062 288.42145419 299 288 C299.06945153 282.09546903 299.15768872 276.19160789 299.26245117 270.28759766 C299.29546181 268.28409329 299.32356588 266.28050125 299.34643555 264.27685547 C299.6486411 238.49293516 299.6486411 238.49293516 306 227 C306 226.34 306 225.68 306 225 C307.61685554 224.7891058 309.23389915 224.57960564 310.8515625 224.375 C313.00670579 224.05569321 313.00670579 224.05569321 315.0234375 223.3125 C322.18125614 221.10236653 327.80406588 223.03014418 334.7512207 225.03393555 C350.81724969 229.60913434 364.26830575 228.50879737 378.95043945 220.74438477 C384.13291665 218.0776257 388.19177469 216.95315905 394.04272461 218.56152344 C396.24283642 219.2944774 398.400955 220.09785985 400.5625 220.9375 C413.58559387 225.90032357 430.50038427 228.14793489 443.66015625 222.34765625 C450.87991053 218.25566631 450.87991053 218.25566631 456 212 C456.64324219 212.09539062 457.28648437 212.19078125 457.94921875 212.2890625 C468.04721177 213.5279033 479.4714909 213.23087423 488 207 C492.98727387 202.62759551 495.87714921 197.54461606 497 191 C497.36696753 183.83857308 495.58055404 178.48521347 491 173 C483.5631075 164.89172137 472.6865719 159.4561879 462 157 C460.68 157 459.36 157 458 157 C458.05220703 155.47632813 458.05220703 155.47632813 458.10546875 153.921875 C458.50571671 137.2658712 455.12651039 123.66708904 443.375 111.31640625 C434.52379786 102.68357258 423.69698433 95.49792095 411 95 C410.62875 93.7625 410.2575 92.525 409.875 91.25 C404.14202053 74.31647732 393.78325483 60.38268482 377.71362305 52.10864258 C362.03001036 44.50953244 343.91254755 42.44662181 327 47 C326.86464844 46.46632812 326.72929687 45.93265625 326.58984375 45.3828125 C322.94872103 32.78060333 314.02907979 22.62115172 302.75 16.1875 C294.3578943 11.9185146 285.41117068 9.56673108 276 9 C275.12859375 8.94714844 274.2571875 8.89429688 273.359375 8.83984375 C249.96119563 8.14989744 225.6576998 13.91021434 208 30 Z " transform="translate(0,0)" style="fill: #ffffff;"/><path d="M0 0 C1.28519531 -0.01224609 2.57039062 -0.02449219 3.89453125 -0.03710938 C17.17601312 -0.05754242 28.27294475 2.29687162 39.125 10.5 C46.75855801 18.31530939 51.84593395 28.0135808 52.1875 39.0625 C51.83235701 46.19580055 51.83235701 46.19580055 48.75 49.1875 C46.34983742 50.24979418 43.91007453 51.14113891 41.4453125 52.04296875 C36.3651308 54.20020533 31.17825502 57.40074265 28.60522461 62.42114258 C27.19054651 65.1002139 25.95194988 67.09491849 23.75 69.1875 C19.39688097 70.23066673 15.24815341 69.83959477 10.8125 69.5 C8.37026976 69.4092409 5.92748496 69.33229664 3.484375 69.26953125 C2.31583984 69.23939941 1.14730469 69.20926758 -0.05664062 69.17822266 C-16.2242421 69.22519275 -32.29927727 78.30803723 -43.609375 89.35546875 C-47.4186557 93.44086595 -50.93514547 97.69294725 -54.25 102.1875 C-55.466875 101.8575 -56.68375 101.5275 -57.9375 101.1875 C-68.11386274 98.96342072 -79.29238879 98.98290042 -88.421875 104.5 C-90.07776537 105.66574682 -91.67203243 106.91826522 -93.25 108.1875 C-92.87095792 111.47825996 -92.87095792 111.47825996 -91.25 114.1875 C-87.53215866 113.8959046 -84.75868321 113.46613265 -81.46875 111.6640625 C-74.51055934 108.47207698 -65.30493589 109.12332723 -58.1875 111.75 C-57.49914062 112.01296875 -56.81078125 112.2759375 -56.1015625 112.546875 C-52.88509563 113.65974539 -51.34898808 113.63369444 -48.25 112.1875 C-46.59117012 109.86148235 -45.23736378 107.4394019 -43.8515625 104.94140625 C-36.36316607 92.06501727 -23.3667735 84.39790651 -9.41235352 80.16015625 C-2.38320333 78.30610412 4.80064807 78.77439716 12 79.0625 C14.22218657 79.13826184 16.44376314 79.20603277 18.66668701 79.25588989 C20.65101763 79.30202303 22.63468316 79.3745699 24.61816406 79.44873047 C27.71339766 79.46840205 27.71339766 79.46840205 29.6015625 77.80834961 C30.97512573 75.86976834 32.25540975 73.89920718 33.5 71.875 C37.84687568 65.3066252 42.55033359 60.86085225 50.234375 58.65234375 C61.24740588 56.61732717 72.48231899 58.40904523 82.37109375 63.546875 C85.8575059 65.95129717 88.20180903 69.09499523 90.85546875 72.359375 C92.97601074 74.40558872 93.85122013 74.77323671 96.75 74.75 C97.74 74.564375 98.73 74.37875 99.75 74.1875 C100.41587988 70.27545571 100.4581147 68.26995659 98.25 64.89453125 C88.37725383 53.38275495 76.23905729 50.13442691 61.75 47.1875 C61.72311849 45.54175434 61.70365877 43.89588587 61.6875 42.25 C61.67589844 41.33347656 61.66429687 40.41695312 61.65234375 39.47265625 C61.75 37.1875 61.75 37.1875 62.75 36.1875 C80.82274233 32.99819253 97.06779531 35.76345211 112.75 45.1875 C124.17185505 53.26483396 132.63376482 66.5466215 135.75 80.1875 C136.13687905 84.96851061 136.02019128 89.72415352 135.828125 94.51171875 C135.46804246 98.01201698 135.46804246 98.01201698 136.75 100.1875 C139.06 100.1875 141.37 100.1875 143.75 100.1875 C145.18023178 95.51540951 146.15380045 91.05646303 146.75 86.1875 C155.77789821 87.31433017 164.66112463 92.39606209 170.75 99.1875 C177.83495371 108.39793983 180.93237103 116.93966911 180.81640625 128.54296875 C180.80202515 130.41505005 180.80202515 130.41505005 180.78735352 132.32495117 C180.77502686 133.26959229 180.7627002 134.2142334 180.75 135.1875 C176.74834864 135.47549328 172.74647784 135.7602019 168.74438477 136.04199219 C167.38559812 136.13811525 166.02687241 136.23510416 164.66821289 136.33300781 C162.70475624 136.47433631 160.74105091 136.61219599 158.77734375 136.75 C157.59906006 136.83378906 156.42077637 136.91757813 155.20678711 137.00390625 C144.67711877 137.56314847 144.67711877 137.56314847 139.5625 134.875 C123.48715464 127.05875081 105.81059616 126.3745766 88.75 131.1875 C86.02565287 132.42583961 83.43733566 133.80107658 80.8125 135.234375 C77.72161181 136.66274 75.93335007 136.27119364 72.75 135.1875 C71.6671875 134.83171875 71.6671875 134.83171875 70.5625 134.46875 C69.03428119 133.96604644 67.51145184 133.44648461 65.99609375 132.90625 C51.8226861 128.37075955 35.08702217 130.10808 21.75 136.1875 C19.68104332 137.2795204 17.61822782 138.3832756 15.5625 139.5 C9.49207196 142.61220877 4.4813541 143.60066626 -2.25 142.1875 C-7.13890352 140.2028956 -11.64410638 137.74939059 -16.25 135.1875 C-30.47300243 128.26535829 -43.00429339 127.64870185 -58.25 132.1875 C-60.66217871 133.21234998 -63.05854804 134.27522221 -65.4375 135.375 C-71.57835909 138.13941809 -76.55997672 139.31866336 -83.25 138.1875 C-85.11715961 137.42797745 -86.98417792 136.66742657 -88.8359375 135.87109375 C-98.75294385 133.06287998 -109.10116198 134.98853582 -118.25 139.1875 C-119.03503906 139.62707031 -119.82007813 140.06664062 -120.62890625 140.51953125 C-124.4400547 141.49077773 -126.76608356 139.85438276 -130 138 C-143.29325612 130.86321789 -157.40438016 127.42581826 -172.33837891 131.67456055 C-180.04646783 134.0889979 -187.16993549 137.28541899 -194.25 141.1875 C-194.52714844 140.56101563 -194.80429688 139.93453125 -195.08984375 139.2890625 C-195.63318359 138.06316406 -195.63318359 138.06316406 -196.1875 136.8125 C-196.72697266 135.59433594 -196.72697266 135.59433594 -197.27734375 134.3515625 C-197.9069903 132.95066215 -198.56312642 131.56124716 -199.25 130.1875 C-200.38011102 118.67753379 -200.37539316 107.29926014 -194.25 97.1875 C-193.80398437 96.445 -193.35796875 95.7025 -192.8984375 94.9375 C-186.47309857 85.46102247 -175.84990289 78.80707053 -164.875 75.875 C-161.25 75.1875 -161.25 75.1875 -157.25 75.1875 C-157.745 76.321875 -158.24 77.45625 -158.75 78.625 C-161.20234994 85.84323756 -160.67471915 93.6650705 -160.25 101.1875 C-159.92 101.8475 -159.59 102.5075 -159.25 103.1875 C-156.94 103.1875 -154.63 103.1875 -152.25 103.1875 C-151.46449177 99.45633593 -151.26814042 96.09681059 -151.4375 92.3125 C-151.50065507 85.30228754 -148.46512175 79.87232637 -143.875 74.63671875 C-135.45423229 67.12685139 -127.12132111 65.62414468 -116.20703125 66.03369141 C-112.31732661 66.33939424 -108.65451306 67.38410018 -104.91796875 68.453125 C-100.76332054 69.59671777 -96.56765339 70.1875 -92.25 70.1875 C-91.98703125 69.59066406 -91.7240625 68.99382812 -91.453125 68.37890625 C-87.9347849 61.97050107 -80.99651487 58.72016517 -74.5 56.0625 C-70.79062175 55.06382124 -67.24747354 54.76310446 -63.421875 54.53125 C-61.04353529 54.37295056 -61.04353529 54.37295056 -59.25 52.1875 C-59.53983269 48.88066534 -59.53983269 48.88066534 -61.25 46.1875 C-73.45307008 44.9689338 -82.72406534 47.5068757 -92.4375 54.9375 C-94.09561489 56.31179342 -95.72746674 57.66496674 -97.25 59.1875 C-100.46385044 58.80939995 -103.62136531 58.31902972 -106.7890625 57.65625 C-111.67769296 56.99413301 -116.51037437 57.0431653 -121.4375 57.0625 C-122.43458984 57.05863281 -123.43167969 57.05476563 -124.45898438 57.05078125 C-125.41482422 57.05207031 -126.37066406 57.05335937 -127.35546875 57.0546875 C-128.22324951 57.05581543 -129.09103027 57.05694336 -129.98510742 57.05810547 C-132.41749336 57.09799645 -132.41749336 57.09799645 -135.25 58.1875 C-133.91603585 51.36946103 -130.49309949 46.60534191 -126.25 41.1875 C-125.77046875 40.55585937 -125.2909375 39.92421875 -124.796875 39.2734375 C-117.68049823 31.07087691 -105.11444335 25.57649012 -94.484375 24.35546875 C-81.3770013 23.67477181 -68.33385256 24.32142938 -55.25 25.1875 C-54.87875 24.07181641 -54.87875 24.07181641 -54.5 22.93359375 C-50.82134423 14.85204687 -40.45569121 8.6472043 -32.42431641 5.46386719 C-21.30269762 1.38400802 -11.81546463 0.00585504 0 0 Z " transform="translate(266.25,20.8125)" style="fill: #F5B791;"/><path d="M0 0 C-0.61488281 0.70576172 -0.61488281 0.70576172 -1.2421875 1.42578125 C-2.05042969 2.35970703 -2.05042969 2.35970703 -2.875 3.3125 C-3.40867187 3.92738281 -3.94234375 4.54226563 -4.4921875 5.17578125 C-7.91199709 9.31321928 -8.29543197 11.68222453 -8 17 C-6.95550317 18.24374592 -6.95550317 18.24374592 -4.66796875 18.33984375 C-1.86430688 18.25786442 -1.86430688 18.25786442 -0.05078125 16.06640625 C0.52285156 15.24011719 1.09648437 14.41382813 1.6875 13.5625 C4.8573156 9.0713422 4.8573156 9.0713422 7 8 C19.61433291 6.87083977 29.75518139 9.25391763 40 17 C41.2065625 17.804375 41.2065625 17.804375 42.4375 18.625 C53.98346376 29.32613715 60.20351799 46.32220352 61.17700195 61.81738281 C61.24377154 64.9616719 61.28478368 68.10512101 61.3125 71.25 C61.34150391 72.33152344 61.37050781 73.41304688 61.40039062 74.52734375 C61.47633512 84.21318826 59.12177203 92.34778496 53 100 C45.62230019 107.49297637 38.10916829 111.95927067 27.46708584 112.13701439 C25.6029523 112.14771709 23.73878255 112.15293525 21.87461853 112.15390015 C20.33120241 112.16047353 20.33120241 112.16047353 18.75660616 112.1671797 C15.30380003 112.18054953 11.8510194 112.18674252 8.39819336 112.19287109 C5.92434576 112.2007735 3.4504993 112.20904254 0.97665405 112.21765137 C-6.45037469 112.24159321 -13.8773992 112.25679663 -21.30445328 112.26971143 C-23.40376248 112.27342619 -25.50307102 112.27739918 -27.60237956 112.2814641 C-40.65165373 112.30670313 -53.70092902 112.32874617 -66.75022221 112.34119225 C-69.77057461 112.34412171 -72.79092698 112.34708341 -75.8112793 112.35009766 C-76.5619296 112.35084371 -77.31257991 112.35158976 -78.08597719 112.35235842 C-90.23792721 112.365004 -102.38973066 112.39821878 -114.54161222 112.43989949 C-127.03072646 112.48238414 -139.51976579 112.50589478 -152.00895208 112.51111281 C-159.01590059 112.5145195 -166.02262 112.52618661 -173.02949715 112.55921555 C-179.62461445 112.5902535 -186.21940601 112.59559638 -192.81460953 112.58383179 C-195.23003692 112.58361132 -197.64548299 112.59189401 -200.06084633 112.60948563 C-223.33606553 112.76972389 -223.33606553 112.76972389 -233 107 C-234.07636719 106.42636719 -235.15273437 105.85273438 -236.26171875 105.26171875 C-246.26928884 98.7672731 -253.46183404 91.98181163 -260 82 C-264.72812049 74.870492 -269.3514787 70.80775828 -277.375 67.6875 C-284.07141859 66.41748958 -290.31839476 66.78780747 -297 68 C-297.46148437 67.20335937 -297.92296875 66.40671875 -298.3984375 65.5859375 C-303.88407916 56.6744801 -308.94459523 52.25794754 -318.6875 48.625 C-329.2757301 46.60920469 -338.73985117 47.64511738 -348.72070312 51.30883789 C-351.26590257 52.23215374 -353.49618091 53.00531268 -356.22265625 52.9765625 C-358.92079305 51.49406976 -360.07878841 49.37111114 -361.75 46.8125 C-367.82845019 38.17057818 -374.6616188 33.51280099 -385 31 C-390.08422303 30.48724455 -395.04233746 30.67795666 -400 32 C-391.76544022 21.44287207 -380.02443436 14.99442743 -367 12 C-363.39181409 11.67602304 -359.80865378 11.62993681 -356.1875 11.625 C-355.25357422 11.60050781 -354.31964844 11.57601563 -353.35742188 11.55078125 C-342.44404226 11.50534039 -333.85883291 15.51815908 -326 23 C-323.50359096 25.89251822 -321.20151713 28.87823455 -319 32 C-312.77760659 31.71716394 -308.22177202 29.28659456 -302.76953125 26.375 C-295.16564574 22.59986925 -287.42306765 23.36850612 -279.4375 25.6875 C-261.94125626 31.58097158 -249.90297695 44.12003015 -239 58.5625 C-224.01034627 78.31168419 -202.40794616 91.57839809 -177.76318359 95.34155273 C-159.5037012 97.53766295 -143.38429353 96.09620115 -128 85 C-119.16023886 77.80072858 -113.07170258 69.17550966 -107.15869141 59.47412109 C-101.8654668 51.01789125 -94.02139476 43.32639521 -84 41 C-74.21469314 39.9039497 -64.76280009 40.06817281 -56 45 C-56.886875 45.969375 -57.77375 46.93875 -58.6875 47.9375 C-62.79536955 52.7380314 -65.53033949 58.08594535 -68.36328125 63.703125 C-72.56608604 71.8141984 -77.81248221 81.05999431 -87 84 C-89.61264755 84.32759203 -92.19821108 84.55991055 -94.828125 84.69140625 C-97.20818818 84.80778537 -97.20818818 84.80778537 -99 87 C-99.33333333 89.5 -99.33333333 89.5 -99 92 C-96.51426832 94.48573168 -95.57511647 94.37999595 -92.125 94.5 C-83.06640878 94.28657769 -75.69233367 90.16319987 -69.375 83.8125 C-64.82257412 78.40237069 -61.73146894 72.22153277 -58.71240234 65.86450195 C-54.9147223 58.06972762 -49.82695647 51.87491552 -41.5625 48.6640625 C-31.75647089 46.12286593 -23.42150934 48.44328713 -14.3125 52.00390625 C-10.93113103 53.02070942 -9.30332307 53.11122817 -6 52 C-4.70366379 50.93354885 -4.70366379 50.93354885 -4.9375 48.4375 C-4.9684375 47.2309375 -4.9684375 47.2309375 -5 46 C-14.6658326 40.8090899 -23.12414544 38.51121255 -34.125 38.8125 C-35.08148438 38.82603516 -36.03796875 38.83957031 -37.0234375 38.85351562 C-39.3495811 38.88840778 -41.6744653 38.93741661 -44 39 C-44.4378094 27.6007404 -44.06571274 18.92273589 -36.72265625 9.84765625 C-27.3605699 -0.19376516 -13.17694457 -6.00043013 0 0 Z " transform="translate(431,380)" style="fill: #D2B9AB;"/><path d="M0 0 C6.06958278 3.8022099 13.78890523 2.12025731 20.5625 1.1875 C21.19760498 1.01653809 21.83270996 0.84557617 22.48706055 0.66943359 C33.56945668 -1.90398718 47.99699456 -0.68960799 58.5625 3.1875 C59.60921875 3.56261719 60.6559375 3.93773437 61.734375 4.32421875 C67.51833217 6.56021195 72.10774412 8.85648734 76.5625 13.1875 C72.19798266 19.19881439 67.70332772 21.37829339 60.5625 23.1875 C45.71722251 25.20352534 30.4123302 22.18264555 16.46484375 17.046875 C1.63532063 12.65589911 -12.69574765 18.41285421 -26 24.5625 C-40.3382663 31.17324702 -55.36441191 37.31692823 -71.4375 35.1875 C-73.11581547 34.55072736 -74.78446533 33.88728468 -76.4375 33.1875 C-82.91088833 32.11895605 -88.4226108 33.93796872 -94.4453125 36.21484375 C-109.32730092 41.0524614 -128.40862639 39.84667086 -142.4375 33.1875 C-145.71543023 31.43607496 -148.90039236 29.61792283 -152.046875 27.640625 C-157.25804281 24.47305241 -162.51122726 24.40829164 -168.4375 25.1875 C-172.04236929 26.48781356 -175.43854845 28.00212831 -178.8828125 29.6796875 C-192.39723713 35.41217971 -209.39286799 35.19023503 -223.06640625 30.09375 C-231.71797244 26.50214528 -239.94132425 21.85632866 -248.12597656 17.32324219 C-253.3304556 14.76607737 -258.74855346 14.18104898 -264.4375 15.1875 C-269.37693883 17.09122869 -274.00936636 19.70565085 -278.65478516 22.22607422 C-292.07833654 29.4654532 -304.73694567 30.58564329 -319.6875 30.25 C-322.09242448 30.20181434 -324.49706913 30.15854021 -326.90228271 30.12779236 C-328.3850839 30.10837084 -329.86780516 30.07914357 -331.35015869 30.03785706 C-336.37510089 29.96533694 -340.59470984 30.83990437 -345.4375 32.1875 C-352.7895234 33.13119256 -358.9020408 31.63118427 -365.4375 28.1875 C-366.0975 27.5275 -366.7575 26.8675 -367.4375 26.1875 C-367.34416272 22.7340208 -366.52884042 21.29764581 -364.3125 18.625 C-358.5364206 13.7278892 -354.52722621 11.45172994 -346.91796875 11.80859375 C-339.91351114 12.87856601 -335.27668722 16.90444081 -330.39453125 21.796875 C-327.89069898 23.57604523 -326.44703005 23.60124881 -323.4375 23.1875 C-321.12403667 21.33460852 -321.12403667 21.33460852 -321.375 18.4375 C-322.85251922 13.91802945 -325.6927216 11.94475198 -329.4375 9.1875 C-327.40995894 3.10487682 -318.66614473 -0.12024483 -313.171875 -3 C-304.02121915 -6.74672523 -289.60642443 -6.36622742 -280.4375 -2.8125 C-267.63909681 2.98590319 -267.63909681 2.98590319 -264.4375 6.1875 C-258.64943264 7.01436677 -255.31291536 5.34783889 -250.55078125 2.37890625 C-246.30678423 -0.01373532 -242.38924701 0.02595025 -237.5625 0 C-235.77199219 -0.02126953 -235.77199219 -0.02126953 -233.9453125 -0.04296875 C-230.40330777 0.18974648 -227.78276861 1.06521634 -224.4375 2.1875 C-213.42212108 3.3139381 -205.56175923 1.61110351 -195.4375 -2.8125 C-185.74339409 -6.37303244 -174.46488549 -7.92228391 -164.5 -4.5 C-156.94341351 -0.95277593 -150.20307125 4.35030986 -143.4375 9.1875 C-140.59145311 11.22011635 -137.73615408 13.23872361 -134.875 15.25 C-134.23288574 15.7147876 -133.59077148 16.1795752 -132.92919922 16.65844727 C-125.00898094 22.2228606 -117.03763896 23.1629349 -107.609375 21.76953125 C-103.17536362 21.23049006 -103.17536362 21.23049006 -99.4375 19.1875 C-99.27083333 16.1875 -99.27083333 16.1875 -99.4375 13.1875 C-100.43129508 11.96414041 -100.43129508 11.96414041 -102.38354492 12.13745117 C-103.21990479 12.16814697 -104.05626465 12.19884277 -104.91796875 12.23046875 C-105.83513672 12.25173828 -106.75230469 12.27300781 -107.69726562 12.29492188 C-109.62993096 12.3477833 -111.56230999 12.41264553 -113.49414062 12.49023438 C-119.51272854 12.60363415 -122.81478617 12.14205688 -127.4375 8.1875 C-120.0446084 0.7946084 -104.68905066 -4.23340477 -94.4375 -4.8125 C-92.90802734 -4.93044922 -92.90802734 -4.93044922 -91.34765625 -5.05078125 C-82.57871519 -5.41571934 -73.34419992 -4.1475226 -65.9375 0.88671875 C-62.57475551 2.63639674 -61.04988195 2.23378291 -57.4375 1.1875 C-55.02018013 0.07808885 -52.70875679 -1.05333328 -50.375 -2.3125 C-35.87183685 -10.0870697 -13.79434455 -9.3001419 0 0 Z " transform="translate(404.4375,165.8125)" style="fill: #D2B9AA;"/><path d="M0 0 C3.55079859 0.66241789 6.67457466 1.57481771 10 3 C10.01981934 3.56509277 10.03963867 4.13018555 10.06005859 4.71240234 C10.15518236 7.26707997 10.26491058 9.82092541 10.375 12.375 C10.4059375 13.26445312 10.436875 14.15390625 10.46875 15.0703125 C10.50742187 15.92109375 10.54609375 16.771875 10.5859375 17.6484375 C10.63306885 18.82672119 10.63306885 18.82672119 10.68115234 20.02880859 C10.8399465 22.23002939 10.8399465 22.23002939 13 24 C16.06991681 23.83557723 16.06991681 23.83557723 19 23 C20.4807848 20.0384304 20.35314037 17.16493705 20.5625 13.875 C20.64628906 12.59367187 20.73007812 11.31234375 20.81640625 9.9921875 C20.90728516 8.51105469 20.90728516 8.51105469 21 7 C25.13993096 7.44041819 28.80986807 8.18958674 32.75390625 9.54296875 C33.55256104 9.81520264 34.35121582 10.08743652 35.17407227 10.36791992 C36.07790649 10.68079956 36.07790649 10.68079956 37 11 C37.01401855 12.66216553 37.01401855 12.66216553 37.02832031 14.35791016 C37.06871084 18.53684192 37.13459536 22.71507471 37.20751953 26.89355469 C37.23544858 28.6893606 37.25680003 30.48528303 37.27099609 32.28125 C37.42984847 51.2588134 40.75887511 64.94019503 53 80 C44.9785553 91.13591625 35.55718929 98.69911913 22 102 C8.33306773 103.55537849 8.33306773 103.55537849 3 100 C3.43570313 99.44054687 3.87140625 98.88109375 4.3203125 98.3046875 C9.44618128 91.40362606 16.55523894 81.52715132 15.65625 72.578125 C15.4396875 71.72734375 15.223125 70.8765625 15 70 C12.03 69.505 12.03 69.505 9 69 C6.77856338 72.50180354 5.16354566 75.94231841 3.6875 79.8125 C0.99137566 86.42655728 -2.60246176 92.23916869 -8 97 C-12.99309588 97 -17.00285889 93.68790383 -21 91 C-19.57623667 87.74052152 -17.82055436 85.68569953 -15.3125 83.1875 C-0.34216595 66.61125739 -0.51779013 45.17583106 -0.3125 24.1875 C-0.27927425 21.83787218 -0.24477987 19.48826195 -0.20898438 17.13867188 C-0.12468516 11.42590184 -0.05608785 5.71311305 0 0 Z " transform="translate(251,356)" style="fill: #F49F94;"/><path d="M0 0 C6.45571088 4.26161306 12.7894417 8.65456162 18.81005859 13.51513672 C21.46502466 15.5742104 22.13615553 15.82239711 25.68505859 16.20263672 C26.51005859 16.07888672 27.33505859 15.95513672 28.18505859 15.82763672 C28.60937957 11.78601169 28.60937957 11.78601169 28.18505859 7.82763672 C25.29995946 5.40341486 25.29995946 5.40341486 22.18505859 3.82763672 C22.18505859 3.16763672 22.18505859 2.50763672 22.18505859 1.82763672 C30.27134484 -2.4343118 38.13643712 -3.46905047 47.18505859 -2.17236328 C50.51578821 -0.85529763 53.45052061 0.64562196 56.50146484 2.51513672 C59.70373818 4.08131407 61.66040546 4.27235805 65.18505859 3.82763672 C67.35842941 2.64573958 67.35842941 2.64573958 69.18505859 0.95263672 C74.62935376 -3.40279941 79.39309749 -4.6138436 86.30615234 -4.50830078 C91.80536126 -3.86660205 96.98052873 -1.99965903 102.18505859 -0.17236328 C103.50412705 4.21944847 103.50412705 4.21944847 102.10302734 6.89013672 C95.56678045 14.20837252 86.72596351 19.31698054 76.78271484 20.09326172 C70.4721951 20.06536992 65.24171672 19.69122383 59.18505859 17.82763672 C52.52824982 16.6116095 47.61682137 18.30017596 41.62255859 21.14013672 C24.89672015 29.00367387 4.93252741 30.65776447 -12.71728516 24.98388672 C-15.49588579 23.94672936 -18.17366406 22.79281755 -20.87744141 21.57763672 C-28.86600354 18.21611305 -37.47136322 19.61402535 -45.81494141 20.82763672 C-53.28241982 21.37885727 -59.70788443 21.57477173 -65.81494141 16.82763672 C-68.80518505 14.06077291 -71.66652336 11.30427903 -73.81494141 7.82763672 C-73.60665997 4.56059369 -72.91221666 3.91723235 -70.43994141 1.64013672 C-64.56631313 -2.41546376 -57.69272647 -1.63037339 -50.81494141 -1.17236328 C-47.98005756 -0.40690014 -45.52738069 0.66516274 -42.81494141 1.82763672 C-37.567694 2.70217795 -34.95440669 0.87224432 -30.73681641 -1.92626953 C-20.93511904 -8.2814351 -9.22641576 -5.95981282 0 0 Z " transform="translate(253.81494140625,301.17236328125)" style="fill: #CEB4A6;"/><path d="M0 0 C10.125 2.25 10.125 2.25 14 4 C14.01981934 4.59538574 14.03963867 5.19077148 14.06005859 5.80419922 C14.15516126 8.49492153 14.26489842 11.18485148 14.375 13.875 C14.4059375 14.81214844 14.436875 15.74929688 14.46875 16.71484375 C14.50742187 17.61074219 14.54609375 18.50664062 14.5859375 19.4296875 C14.6173584 20.25710449 14.6487793 21.08452148 14.68115234 21.93701172 C14.82599137 24.21986085 14.82599137 24.21986085 17 26 C19.31 26 21.62 26 24 26 C24.33 20.06 24.66 14.12 25 8 C34.625 9.875 34.625 9.875 38 11 C38 22.22 38 33.44 38 45 C31.565 46.98 31.565 46.98 25 49 C23.515 49.495 23.515 49.495 22 50 C13.06624241 51.3167292 9.52765028 48.65144561 1 44 C0.67 29.48 0.34 14.96 0 0 Z " transform="translate(250,244)" style="fill: #F3CB8C;"/><path d="M0 0 C3.5 0.25 3.5 0.25 5.5 2.25 C5.875 5.6875 5.875 5.6875 5.5 9.25 C3.8125 11.25 3.8125 11.25 1.5 12.25 C-1.87036311 12.00925978 -3.08798021 11.66201979 -5.5 9.25 C-5.75 5.75 -5.75 5.75 -5.5 2.25 C-3.5 0.25 -3.5 0.25 0 0 Z " transform="translate(460.5,320.75)" style="fill: #34363A;"/><path d="M0 0 C3 0.25 3 0.25 5 2.25 C5.33302312 5.3804173 5.47671956 7.42898298 3.875 10.1875 C2 11.25 2 11.25 -1.0625 11.125 C-4 10.25 -4 10.25 -6 7.25 C-5.5601518 2.74155593 -4.87125629 0.40593802 0 0 Z " transform="translate(440,433.75)" style="fill: #3E3E41;"/><path d="M0 0 C1.8125 1.1875 1.8125 1.1875 3 3 C3.4334014 5.88934264 3.42525784 7.35092224 1.8125 9.8125 C-0.64907776 11.42525784 -2.11065736 11.4334014 -5 11 C-6.8125 9.8125 -6.8125 9.8125 -8 8 C-8.4334014 5.11065736 -8.42525784 3.64907776 -6.8125 1.1875 C-4.35092224 -0.42525784 -2.88934264 -0.4334014 0 0 Z " transform="translate(268,399)" style="fill: #3D3B3E;"/><path d="M0 0 C1.8125 1.1875 1.8125 1.1875 3 3 C3.4334014 5.88934264 3.42525784 7.35092224 1.8125 9.8125 C-0.64907776 11.42525784 -2.11065736 11.4334014 -5 11 C-6.8125 9.8125 -6.8125 9.8125 -8 8 C-8.4334014 5.11065736 -8.42525784 3.64907776 -6.8125 1.1875 C-4.35092224 -0.42525784 -2.88934264 -0.4334014 0 0 Z " transform="translate(229,68)" style="fill: #3D3B3E;"/><path d="M0 0 C3 0.25 3 0.25 5 2.25 C5.25 5.25 5.25 5.25 5 8.25 C3 10.25 3 10.25 0 10.5 C-3 10.25 -3 10.25 -5 8.25 C-5.25 5.25 -5.25 5.25 -5 2.25 C-3 0.25 -3 0.25 0 0 Z " transform="translate(369,104.75)" style="fill: #36373B;"/></svg>